PathFileType	4	(X/Y/Z)	C:/Users/beibeiliu/ov580/test_trc/User2\sequence.7_training_dense_left.trc
DataRate	CameraRate	NumFrames	NumMarkers	Units	OrigDataRate	OrigDataStartFrame	OrigNumFrames
120	120	20	19	mm	120	170	338
Frame#	Time	ThumbCMC			ThumbMCP			ThumbIP			ThumbTip			IndexMCP			IndexPIP			IndexTip			MiddleMCP			MiddlePIP			MiddleTip			RingMCP			RingPIP			RingTip			PinkyMCP			PinkyPIP			PinkyTip			BackHand1			BackHand2			BackHand3	
		X0	Y0	Z0	X1	Y1	Z1	X2	Y2	Z2	X3	Y3	Z3	X4	Y4	Z4	X5	Y5	Z5	X6	Y6	Z6	X7	Y7	Z7	X8	Y8	Z8	X9	Y9	Z9	X10	Y10	Z10	X11	Y11	Z11	X12	Y12	Z12	X13	Y13	Z13	X14	Y14	Z14	X15	Y15	Z15	X16	Y16	Z16	X17	Y17	Z17	X18	Y18	Z18	
169	1.40833	-236.553	54.5444	86.1477	-248.5	48.0589	58.7353	-267.814	45.9276	31.088	-278.321	48.2547	10.4051	-250.915	-20.4633	37.0355	-233.923	-19.6923	8.69358	-221.172	9.71813	21.8816	-224.003	-31.978	35.1094	-203.567	-10.5559	12.4499	-201.226	15.4394	40.7897	-201.173	-31.5813	39.8479	-181.005	-8.5652	25.7433	-190.377	13.8825	57.7034	-185.346	-30.8174	49.6579	-169.774	-3.62183	40.281	-180.603	11.2134	65.7501	-213.569	-15.4989	101.493	-208.933	6.10137	128.904	-237.197	14.1083	104.324	
170	1.41667	-238.464	46.7818	84.9687	-252.248	49.4305	60.3262	-269.194	46.3775	35.0663	-282.116	41.4904	9.55947	-252.099	-27.2563	38.1367	-236.121	-27.146	12.9607	-221.843	4.26946	25.26	-227.034	-38.4774	35.8318	-206.646	-17.527	13.5368	-200.81	6.3991	43.8669	-200.09	-38.356	38.5178	-185.67	-12.5214	27.6131	-191.577	7.24589	53.7398	-184.528	-39.4082	54.3009	-175.203	-12.6144	39.7753	-185.574	4.54784	68.0623	-211.743	-21.5348	104.336	-206.829	0.470312	130.546	-237.284	11.3506	106.918	
171	1.425	-235.537	45.3004	87.045	-246.646	42.8801	60.8795	-265.624	38.0576	33.0148	-275.386	37.3501	12.6219	-252.111	-30.0549	39.1393	-234.149	-32.2612	16.6573	-218.791	-0.12143	27.4448	-228.577	-42.2745	39.3073	-207.135	-28.6047	16.6394	-200.622	3.5365	44.3592	-204.309	-42.6528	43.7743	-185.204	-23.9888	29.137	-191.522	2.72212	58.5842	-185.751	-44.5654	59.1723	-173.627	-16.8837	42.6556	-183.19	-0.380364	66.6533	-213.958	-27.4791	104.529	-207.814	-0.026479	133.809	-237.832	12.4088	106.134	
172	1.43333	-230.192	43.6662	86.8019	-242.854	45.526	59.9587	-259.85	38.2941	32.028	-270.018	39.6626	8.24447	-250.633	-27.7664	43.62	-232.079	-35.1227	17.163	-216.228	-3.95806	24.7573	-226.457	-43.7042	43.9864	-203.947	-30.521	19.1749	-197.886	0.387247	48.2019	-202.833	-45.8794	43.5248	-182.678	-24.6848	33.5581	-186.702	-3.23873	61.1634	-183.027	-49.4185	62.4633	-170.853	-20.4712	48.0869	-181.755	-2.73459	75.761	-217.843	-26.0797	105.625	-208.133	-4.85606	133.727	-233.189	8.40797	109.566	
173	1.44167	-221.657	41.7584	86.5562	-231.083	42.1351	57.314	-248.027	43.93	25.8257	-252.796	40.5111	4.11757	-245.139	-26.6222	43.6643	-224.369	-32.0636	16.5862	-206.779	-6.20837	30.451	-224.495	-42.3936	43.4948	-196.397	-30.2488	22.8704	-194.035	0.103136	50.5124	-202.996	-46.5645	49.8564	-176.948	-31.951	38.295	-186.623	-3.54624	62.5815	-185.88	-51.7883	63.3548	-169.139	-24.859	52.9724	-178.576	-6.9105	79.476	-220.391	-23.7349	109.122	-210.177	-4.56213	131.949	-235.504	12.2062	105.036	
174	1.45	-210.119	45.284	84.5282	-215.909	45.3555	55.5124	-226.86	50.2321	21.3233	-229.472	43.956	-0.273637	-243.522	-14.3847	38.3201	-219.966	-28.1279	17.4949	-199.928	-1.40245	32.4336	-224.453	-37.2075	41.2874	-191.343	-30.7583	27.2152	-185.619	-4.96072	53.5544	-202.164	-48.6307	50.7432	-178.186	-31.0366	41.1212	-181.997	-7.51869	67.4072	-189.509	-53.2666	66.6229	-168.863	-30.1001	57.2393	-177.62	-10.555	82.5999	-224.213	-23.7784	108.17	-213.622	-2.23068	134.686	-230.475	19.1766	104.333	
175	1.45833	-194.135	51.043	88.0006	-197.201	55.1251	54.3736	-202.133	55.4182	22.4573	-202.761	58.2561	-3.35218	-237.605	-3.35066	35.517	-220.773	-15.8338	11.4589	-192.493	2.45004	29.4411	-226.397	-27.3034	37.9621	-193.883	-31.3686	26.5745	-183.65	-1.84752	57.0071	-209.154	-40.8663	49.527	-180.128	-31.189	43.0874	-178.93	-8.05107	67.1685	-198.039	-51.4395	66.3514	-171.559	-33.8054	61.9721	-178.222	-10.0168	84.6468	-225.939	-9.71468	107.714	-215.49	6.54148	132.146	-223.22	29.8121	103.48	
176	1.46667	-180.66	53.4872	87.0811	-177.122	59.2954	57.5848	-177.974	63.5347	25.8249	-177.097	65.3569	0.938863	-232.832	15.8071	34.4085	-215.959	-4.21093	14.5878	-188.372	5.95957	30.2551	-228.737	-10.0969	35.5262	-198.565	-20.669	24.217	-180.059	2.62051	56.1149	-217.506	-29.1605	48.059	-186.873	-32.4835	44.1775	-181.915	-4.06532	70.8974	-211.92	-37.9923	62.7282	-178.006	-32.8776	64.3584	-181.163	-10.5442	86.7118	-229.846	2.27683	105.724	-216.143	14.3506	132.895	-216.18	41.4967	101.179	
177	1.475	-163.352	57.0941	92.1603	-157.767	60.7064	62.1069	-155.444	66.3477	32.7341	-154.66	68.9191	4.81814	-225.315	38.069	30.2545	-215.454	14.7561	11.576	-182.65	16.453	30.0654	-227.009	12.6008	35.1563	-198.279	-9.58457	23.9705	-180.105	3.40138	55.2833	-221.705	-8.98723	41.4339	-195.063	-23.1025	40.5893	-183.029	-0.318571	70.9456	-223.639	-25.1248	63.2201	-189.346	-30.2956	60.051	-184.674	-8.16003	86.5223	-230.756	18.5206	100.783	-212.87	22.3542	135.262	-204.34	50.8718	106.033	
178	1.48333	-150.564	55.0473	95.7059	-147.166	57.1932	67.4052	-135.998	68.9781	34.9107	-129.619	71.04	12.6013	-210.313	58.1818	34.4974	-211.231	34.3885	11.0313	-176.937	24.7006	28.9229	-219.092	33.6344	28.0352	-196.98	6.34335	20.5246	-177.653	11.1314	53.5619	-222.592	10.9479	39.7931	-198.808	-12.5764	39.5218	-182.993	5.32225	67.6988	-227.741	-8.10633	55.6885	-198.624	-18.3542	53.4072	-186.785	-1.6807	80.2946	-225.958	33.0976	100.79	-209.134	36.6013	131.113	-190.936	60.7597	106.992	
179	1.49167	-142.402	51.3195	100.471	-133.339	55.1666	74.5275	-124.776	65.0915	40.7995	-117.091	67.3803	19.8201	-201.521	70.2906	32.9657	-201.068	53.8341	8.34754	-178.576	29.951	27.2722	-210.894	49.6996	30.8019	-197.625	19.8301	16.8953	-178.214	15.2333	52.8173	-222.914	23.955	40.1899	-201.896	2.1056	33.3592	-184.792	10.8632	66.9222	-229.375	8.154	51.7373	-200.627	-7.83919	50.3758	-189.843	2.38102	78.178	-219.393	45.6369	102.164	-202.649	41.9559	132.689	-182.12	63.3424	110.438	
180	1.5	-139.615	50.3339	100.849	-126.646	53.7216	76.7133	-112.868	66.3008	42.2203	-107.197	68.6291	18.7393	-190.679	77.7645	38.4082	-193.106	59.2199	10.477	-169.168	37.6357	26.655	-202.379	58.3272	26.7341	-190.595	25.997	17.471	-174.557	21.6376	53.9203	-218.491	35.234	33.6131	-200.488	13.11	29.1336	-185.181	16.3037	65.4529	-225.349	24.6711	47.8589	-204.019	1.67462	45.6369	-191.104	7.28993	74.7735	-211.591	58.8832	98.095	-204.703	51.4505	129.662	-177.717	64.8707	109.694	
181	1.50833	-139.709	47.4312	100.649	-121.753	52.8143	74.1304	-106.759	59.9957	47.8889	-98.671	64.145	22.9388	-181.817	84.6253	32.8538	-185.457	67.4797	9.48274	-163.1	40.9383	28.7007	-198.117	64.6184	27.979	-188.4	34.3578	14.3411	-175.048	24.6383	55.3325	-215.863	45.6162	35.959	-198.67	16.6166	30.848	-186.262	19.3985	62.0795	-228.98	33.2073	48.5992	-203.822	9.81021	43.4295	-194.078	12.3534	74.5126	-208.627	64.4102	97.2697	-202.153	51.941	130.935	-175.624	69.2159	106.409	
182	1.51667	-139.63	43.7013	102.618	-122.027	48.2375	74.2206	-104.687	55.4022	45.2993	-95.3261	56.4697	24.9275	-175.766	85.0862	33.792	-180.107	68.5448	6.40345	-163.646	39.8127	28.1759	-193.852	67.5418	25.264	-188.292	31.3412	15.6912	-177.676	23.6335	50.2983	-208.561	48.3419	29.3513	-199.249	19.4701	29.263	-188.677	22.5313	65.8192	-226.049	37.7457	42.8688	-211.184	9.1326	41.9465	-198.6	16.1141	74.0573	-209.441	65.9086	95.2802	-200.914	55.944	129.219	-171.953	68.7456	107.137	
183	1.525	-141.999	43.0934	98.5312	-122.864	43.9436	71.7012	-106.233	49.4637	43.6838	-101.24	50.8263	18.6158	-177.908	82.2301	28.2581	-177.471	60.1619	2.13762	-165.435	36.7327	23.975	-197.615	65.8551	25.2928	-191.547	28.6131	14.3068	-178.644	23.5088	51.7157	-213.173	47.7962	29.7592	-204.864	16.3186	29.6519	-190.269	20.8029	61.5412	-229.707	38.8789	43.266	-210.012	11.7262	42.4975	-197.851	15.2423	71.0345	-205.962	67.5397	94.1385	-204.284	58.4275	126.662	-172.038	67.95	105.849	
184	1.53333	-141.648	40.9852	91.7601	-125.323	37.3132	67.6469	-111.552	39.3903	38.4034	-102.517	37.6931	17.6768	-178.865	74.6422	23.5393	-183.057	54.9323	-0.623088	-175.065	28.9389	23.5799	-201.963	56.4449	18.4463	-195.946	24.3152	10.8696	-182.141	16.7526	48.8796	-219.28	40.9278	26.4925	-208.883	13.057	28.9055	-194.474	18.5751	64.2041	-232.193	34.461	41.0874	-213.902	7.37199	44.2026	-204.858	13.8491	74.065	-209.015	68.3327	89.3873	-201.195	57.627	122.617	-171.804	67.661	98.0415	
185	1.54167	-143.594	34.0655	87.8203	-129.424	29.2597	61.7462	-114.026	28.2303	31.4764	-108.09	23.6202	9.16907	-183.898	61.4455	13.5353	-191.183	37.7564	-3.09697	-181.283	17.4323	24.8146	-203.459	47.3227	14.8119	-205.515	12.3092	14.5269	-189.282	9.89437	50.6794	-222.73	35.3736	29.1052	-215.066	4.88094	28.9949	-198.313	13.131	62.452	-234.731	31.5715	44.3054	-220.911	-0.629852	51.0285	-207.406	11.4989	74.5566	-208.982	66.2705	84.3437	-199.379	59.8337	114.965	-171.006	63.8398	90.6713	
186	1.55	-142.346	29.3915	84.4648	-131.153	19.8274	58.6312	-115.345	12.6538	30.0125	-110.499	5.1145	9.98829	-188.156	45.1762	12.6823	-197.29	14.436	-0.154126	-185.701	3.36838	28.1136	-211.711	35.0732	18.4364	-209.766	-3.10078	19.9917	-192.809	0.858201	55.1199	-226.633	20.6706	27.7153	-221.596	-7.30703	39.2326	-203.473	8.58371	69.0505	-242.767	18.0932	46.5442	-225.466	-7.22071	54.6096	-207.091	9.28137	78.3956	-214.366	61.0724	82.9806	-200.142	61.5135	112.086	-170.104	58.5243	87.3573	
187	1.55833	-148.185	23.619	83.261	-135.877	11.3522	59.1498	-120.011	0.0377817	28.6096	-112.827	-9.0673	8.53315	-194.19	27.0492	8.26076	-200.666	-1.91005	0.943596	-185.695	-7.44739	37.663	-213.28	17.8185	15.5235	-216.22	-16.0965	26.8024	-196.111	-7.87612	59.2436	-229.476	8.87023	30.3866	-222.114	-16.9171	44.0191	-204.9	-1.46089	70.3729	-245.477	8.7106	50.6255	-229.057	-16.8536	64.6443	-210.945	2.95636	84.2322	-211.303	54.2601	73.9819	-202.165	57.7075	108.619	-176.274	54.694	80.2338	
188	1.56667	-146.499	17.6936	82.5045	-133.745	2.25002	58.4077	-121.738	-11.4901	29.8378	-116.357	-24.4428	10.3876	-194.774	11.979	10.5941	-201.062	-19.3098	9.47111	-187.188	-16.7371	45.5792	-218.045	8.28954	22.9282	-215.477	-27.5023	33.0929	-191.381	-12.128	65.6714	-234.269	-1.7277	37.3817	-225.053	-27.0089	54.3918	-203.823	-4.28067	74.9385	-243.846	-2.26246	54.1761	-230.573	-24.0946	71.5909	-213.377	-3.5153	89.9942	-216.966	50.0462	74.0942	-199.32	55.0713	109.721	-176.302	48.6854	76.7772	
